<?xml version="1.0" encoding="utf-8" standalone="no"?>
<!DOCTYPE svg PUBLIC "-//W3C//DTD SVG 1.1//EN"
  "http://www.w3.org/Graphics/SVG/1.1/DTD/svg11.dtd">
<svg xmlns:xlink="http://www.w3.org/1999/xlink" width="576pt" height="432pt" viewBox="0 0 576 432" xmlns="http://www.w3.org/2000/svg" version="1.1">
 <metadata>
  <rdf:RDF xmlns:dc="http://purl.org/dc/elements/1.1/" xmlns:cc="http://creativecommons.org/ns#" xmlns:rdf="http://www.w3.org/1999/02/22-rdf-syntax-ns#">
   <cc:Work>
    <dc:type rdf:resource="http://purl.org/dc/dcmitype/StillImage"/>
    <dc:date>2025-03-02T23:47:39.887091</dc:date>
    <dc:format>image/svg+xml</dc:format>
    <dc:creator>
     <cc:Agent>
      <dc:title>Matplotlib v3.6.3, https://matplotlib.org/</dc:title>
     </cc:Agent>
    </dc:creator>
   </cc:Work>
  </rdf:RDF>
 </metadata>
 <defs>
  <style type="text/css">*{stroke-linejoin: round; stroke-linecap: butt}</style>
 </defs>
 <g id="figure_1">
  <g id="patch_1">
   <path d="M 0 432 
L 576 432 
L 576 0 
L 0 0 
z
" style="fill: #ffffff"/>
  </g>
  <g id="axes_1">
   <g id="PathCollection_1">
    <defs>
     <path id="C0_0_df50c455cd" d="M 0 22.36068 
C 5.930122 22.36068 11.618159 20.004617 15.811388 15.811388 
C 20.004617 11.618159 22.36068 5.930122 22.36068 -0 
C 22.36068 -5.930122 20.004617 -11.618159 15.811388 -15.811388 
C 11.618159 -20.004617 5.930122 -22.36068 0 -22.36068 
C -5.930122 -22.36068 -11.618159 -20.004617 -15.811388 -15.811388 
C -20.004617 -11.618159 -22.36068 -5.930122 -22.36068 0 
C -22.36068 5.930122 -20.004617 11.618159 -15.811388 15.811388 
C -11.618159 20.004617 -5.930122 22.36068 0 22.36068 
z
"/>
    </defs>
    <g clip-path="url(#p3d7738b250)">
     <use xlink:href="#C0_0_df50c455cd" x="162.681295" y="66.96" style="fill: #ff0000; stroke: #000000"/>
    </g>
    <g clip-path="url(#p3d7738b250)">
     <use xlink:href="#C0_0_df50c455cd" x="498.109091" y="244.742136" style="fill: #ff0000; stroke: #000000"/>
    </g>
    <g clip-path="url(#p3d7738b250)">
     <use xlink:href="#C0_0_df50c455cd" x="92.290909" y="369.36" style="fill: #ff0000; stroke: #000000"/>
    </g>
   </g>
   <g id="text_1">
    <g clip-path="url(#p3d7738b250)">
     <!-- MyType4 -->
     <g transform="translate(140.743795 64.120469) scale(0.1 -0.1)">
      <defs>
       <path id="DejaVuSans-4d" d="M 628 4666 
L 1569 4666 
L 2759 1491 
L 3956 4666 
L 4897 4666 
L 4897 0 
L 4281 0 
L 4281 4097 
L 3078 897 
L 2444 897 
L 1241 4097 
L 1241 0 
L 628 0 
L 628 4666 
z
" transform="scale(0.015625)"/>
       <path id="DejaVuSans-79" d="M 2059 -325 
Q 1816 -950 1584 -1140 
Q 1353 -1331 966 -1331 
L 506 -1331 
L 506 -850 
L 844 -850 
Q 1081 -850 1212 -737 
Q 1344 -625 1503 -206 
L 1606 56 
L 191 3500 
L 800 3500 
L 1894 763 
L 2988 3500 
L 3597 3500 
L 2059 -325 
z
" transform="scale(0.015625)"/>
       <path id="DejaVuSans-54" d="M -19 4666 
L 3928 4666 
L 3928 4134 
L 2272 4134 
L 2272 0 
L 1638 0 
L 1638 4134 
L -19 4134 
L -19 4666 
z
" transform="scale(0.015625)"/>
       <path id="DejaVuSans-70" d="M 1159 525 
L 1159 -1331 
L 581 -1331 
L 581 3500 
L 1159 3500 
L 1159 2969 
Q 1341 3281 1617 3432 
Q 1894 3584 2278 3584 
Q 2916 3584 3314 3078 
Q 3713 2572 3713 1747 
Q 3713 922 3314 415 
Q 2916 -91 2278 -91 
Q 1894 -91 1617 61 
Q 1341 213 1159 525 
z
M 3116 1747 
Q 3116 2381 2855 2742 
Q 2594 3103 2138 3103 
Q 1681 3103 1420 2742 
Q 1159 2381 1159 1747 
Q 1159 1113 1420 752 
Q 1681 391 2138 391 
Q 2594 391 2855 752 
Q 3116 1113 3116 1747 
z
" transform="scale(0.015625)"/>
       <path id="DejaVuSans-65" d="M 3597 1894 
L 3597 1613 
L 953 1613 
Q 991 1019 1311 708 
Q 1631 397 2203 397 
Q 2534 397 2845 478 
Q 3156 559 3463 722 
L 3463 178 
Q 3153 47 2828 -22 
Q 2503 -91 2169 -91 
Q 1331 -91 842 396 
Q 353 884 353 1716 
Q 353 2575 817 3079 
Q 1281 3584 2069 3584 
Q 2775 3584 3186 3129 
Q 3597 2675 3597 1894 
z
M 3022 2063 
Q 3016 2534 2758 2815 
Q 2500 3097 2075 3097 
Q 1594 3097 1305 2825 
Q 1016 2553 972 2059 
L 3022 2063 
z
" transform="scale(0.015625)"/>
       <path id="DejaVuSans-34" d="M 2419 4116 
L 825 1625 
L 2419 1625 
L 2419 4116 
z
M 2253 4666 
L 3047 4666 
L 3047 1625 
L 3713 1625 
L 3713 1100 
L 3047 1100 
L 3047 0 
L 2419 0 
L 2419 1100 
L 313 1100 
L 313 1709 
L 2253 4666 
z
" transform="scale(0.015625)"/>
      </defs>
      <use xlink:href="#DejaVuSans-4d"/>
      <use xlink:href="#DejaVuSans-79" x="86.279297"/>
      <use xlink:href="#DejaVuSans-54" x="145.458984"/>
      <use xlink:href="#DejaVuSans-79" x="190.917969"/>
      <use xlink:href="#DejaVuSans-70" x="250.097656"/>
      <use xlink:href="#DejaVuSans-65" x="313.574219"/>
      <use xlink:href="#DejaVuSans-34" x="375.097656"/>
     </g>
    </g>
    <g clip-path="url(#p3d7738b250)">
     <!-- (Node 0) -->
     <g transform="translate(140.958639 75.318281) scale(0.1 -0.1)">
      <defs>
       <path id="DejaVuSans-28" d="M 1984 4856 
Q 1566 4138 1362 3434 
Q 1159 2731 1159 2009 
Q 1159 1288 1364 580 
Q 1569 -128 1984 -844 
L 1484 -844 
Q 1016 -109 783 600 
Q 550 1309 550 2009 
Q 550 2706 781 3412 
Q 1013 4119 1484 4856 
L 1984 4856 
z
" transform="scale(0.015625)"/>
       <path id="DejaVuSans-4e" d="M 628 4666 
L 1478 4666 
L 3547 763 
L 3547 4666 
L 4159 4666 
L 4159 0 
L 3309 0 
L 1241 3903 
L 1241 0 
L 628 0 
L 628 4666 
z
" transform="scale(0.015625)"/>
       <path id="DejaVuSans-6f" d="M 1959 3097 
Q 1497 3097 1228 2736 
Q 959 2375 959 1747 
Q 959 1119 1226 758 
Q 1494 397 1959 397 
Q 2419 397 2687 759 
Q 2956 1122 2956 1747 
Q 2956 2369 2687 2733 
Q 2419 3097 1959 3097 
z
M 1959 3584 
Q 2709 3584 3137 3096 
Q 3566 2609 3566 1747 
Q 3566 888 3137 398 
Q 2709 -91 1959 -91 
Q 1206 -91 779 398 
Q 353 888 353 1747 
Q 353 2609 779 3096 
Q 1206 3584 1959 3584 
z
" transform="scale(0.015625)"/>
       <path id="DejaVuSans-64" d="M 2906 2969 
L 2906 4863 
L 3481 4863 
L 3481 0 
L 2906 0 
L 2906 525 
Q 2725 213 2448 61 
Q 2172 -91 1784 -91 
Q 1150 -91 751 415 
Q 353 922 353 1747 
Q 353 2572 751 3078 
Q 1150 3584 1784 3584 
Q 2172 3584 2448 3432 
Q 2725 3281 2906 2969 
z
M 947 1747 
Q 947 1113 1208 752 
Q 1469 391 1925 391 
Q 2381 391 2643 752 
Q 2906 1113 2906 1747 
Q 2906 2381 2643 2742 
Q 2381 3103 1925 3103 
Q 1469 3103 1208 2742 
Q 947 2381 947 1747 
z
" transform="scale(0.015625)"/>
       <path id="DejaVuSans-20" transform="scale(0.015625)"/>
       <path id="DejaVuSans-30" d="M 2034 4250 
Q 1547 4250 1301 3770 
Q 1056 3291 1056 2328 
Q 1056 1369 1301 889 
Q 1547 409 2034 409 
Q 2525 409 2770 889 
Q 3016 1369 3016 2328 
Q 3016 3291 2770 3770 
Q 2525 4250 2034 4250 
z
M 2034 4750 
Q 2819 4750 3233 4129 
Q 3647 3509 3647 2328 
Q 3647 1150 3233 529 
Q 2819 -91 2034 -91 
Q 1250 -91 836 529 
Q 422 1150 422 2328 
Q 422 3509 836 4129 
Q 1250 4750 2034 4750 
z
" transform="scale(0.015625)"/>
       <path id="DejaVuSans-29" d="M 513 4856 
L 1013 4856 
Q 1481 4119 1714 3412 
Q 1947 2706 1947 2009 
Q 1947 1309 1714 600 
Q 1481 -109 1013 -844 
L 513 -844 
Q 928 -128 1133 580 
Q 1338 1288 1338 2009 
Q 1338 2731 1133 3434 
Q 928 4138 513 4856 
z
" transform="scale(0.015625)"/>
      </defs>
      <use xlink:href="#DejaVuSans-28"/>
      <use xlink:href="#DejaVuSans-4e" x="39.013672"/>
      <use xlink:href="#DejaVuSans-6f" x="113.818359"/>
      <use xlink:href="#DejaVuSans-64" x="175"/>
      <use xlink:href="#DejaVuSans-65" x="238.476562"/>
      <use xlink:href="#DejaVuSans-20" x="300"/>
      <use xlink:href="#DejaVuSans-30" x="331.787109"/>
      <use xlink:href="#DejaVuSans-29" x="395.410156"/>
     </g>
    </g>
   </g>
   <g id="text_2">
    <g clip-path="url(#p3d7738b250)">
     <!-- MyType1 -->
     <g transform="translate(476.171591 241.902604) scale(0.1 -0.1)">
      <defs>
       <path id="DejaVuSans-31" d="M 794 531 
L 1825 531 
L 1825 4091 
L 703 3866 
L 703 4441 
L 1819 4666 
L 2450 4666 
L 2450 531 
L 3481 531 
L 3481 0 
L 794 0 
L 794 531 
z
" transform="scale(0.015625)"/>
      </defs>
      <use xlink:href="#DejaVuSans-4d"/>
      <use xlink:href="#DejaVuSans-79" x="86.279297"/>
      <use xlink:href="#DejaVuSans-54" x="145.458984"/>
      <use xlink:href="#DejaVuSans-79" x="190.917969"/>
      <use xlink:href="#DejaVuSans-70" x="250.097656"/>
      <use xlink:href="#DejaVuSans-65" x="313.574219"/>
      <use xlink:href="#DejaVuSans-31" x="375.097656"/>
     </g>
    </g>
    <g clip-path="url(#p3d7738b250)">
     <!-- (Node 1) -->
     <g transform="translate(476.386435 253.100417) scale(0.1 -0.1)">
      <use xlink:href="#DejaVuSans-28"/>
      <use xlink:href="#DejaVuSans-4e" x="39.013672"/>
      <use xlink:href="#DejaVuSans-6f" x="113.818359"/>
      <use xlink:href="#DejaVuSans-64" x="175"/>
      <use xlink:href="#DejaVuSans-65" x="238.476562"/>
      <use xlink:href="#DejaVuSans-20" x="300"/>
      <use xlink:href="#DejaVuSans-31" x="331.787109"/>
      <use xlink:href="#DejaVuSans-29" x="395.410156"/>
     </g>
    </g>
   </g>
   <g id="text_3">
    <g clip-path="url(#p3d7738b250)">
     <!-- (MyType2, MyType3&lt;MyType1&gt;, MyType4, MyType5) -->
     <g transform="translate(-39.212216 366.520469) scale(0.1 -0.1)">
      <defs>
       <path id="DejaVuSans-32" d="M 1228 531 
L 3431 531 
L 3431 0 
L 469 0 
L 469 531 
Q 828 903 1448 1529 
Q 2069 2156 2228 2338 
Q 2531 2678 2651 2914 
Q 2772 3150 2772 3378 
Q 2772 3750 2511 3984 
Q 2250 4219 1831 4219 
Q 1534 4219 1204 4116 
Q 875 4013 500 3803 
L 500 4441 
Q 881 4594 1212 4672 
Q 1544 4750 1819 4750 
Q 2544 4750 2975 4387 
Q 3406 4025 3406 3419 
Q 3406 3131 3298 2873 
Q 3191 2616 2906 2266 
Q 2828 2175 2409 1742 
Q 1991 1309 1228 531 
z
" transform="scale(0.015625)"/>
       <path id="DejaVuSans-2c" d="M 750 794 
L 1409 794 
L 1409 256 
L 897 -744 
L 494 -744 
L 750 256 
L 750 794 
z
" transform="scale(0.015625)"/>
       <path id="DejaVuSans-33" d="M 2597 2516 
Q 3050 2419 3304 2112 
Q 3559 1806 3559 1356 
Q 3559 666 3084 287 
Q 2609 -91 1734 -91 
Q 1441 -91 1130 -33 
Q 819 25 488 141 
L 488 750 
Q 750 597 1062 519 
Q 1375 441 1716 441 
Q 2309 441 2620 675 
Q 2931 909 2931 1356 
Q 2931 1769 2642 2001 
Q 2353 2234 1838 2234 
L 1294 2234 
L 1294 2753 
L 1863 2753 
Q 2328 2753 2575 2939 
Q 2822 3125 2822 3475 
Q 2822 3834 2567 4026 
Q 2313 4219 1838 4219 
Q 1578 4219 1281 4162 
Q 984 4106 628 3988 
L 628 4550 
Q 988 4650 1302 4700 
Q 1616 4750 1894 4750 
Q 2613 4750 3031 4423 
Q 3450 4097 3450 3541 
Q 3450 3153 3228 2886 
Q 3006 2619 2597 2516 
z
" transform="scale(0.015625)"/>
       <path id="DejaVuSans-3c" d="M 4684 3150 
L 1459 2003 
L 4684 863 
L 4684 294 
L 678 1747 
L 678 2266 
L 4684 3719 
L 4684 3150 
z
" transform="scale(0.015625)"/>
       <path id="DejaVuSans-3e" d="M 678 3150 
L 678 3719 
L 4684 2266 
L 4684 1747 
L 678 294 
L 678 863 
L 3897 2003 
L 678 3150 
z
" transform="scale(0.015625)"/>
       <path id="DejaVuSans-35" d="M 691 4666 
L 3169 4666 
L 3169 4134 
L 1269 4134 
L 1269 2991 
Q 1406 3038 1543 3061 
Q 1681 3084 1819 3084 
Q 2600 3084 3056 2656 
Q 3513 2228 3513 1497 
Q 3513 744 3044 326 
Q 2575 -91 1722 -91 
Q 1428 -91 1123 -41 
Q 819 9 494 109 
L 494 744 
Q 775 591 1075 516 
Q 1375 441 1709 441 
Q 2250 441 2565 725 
Q 2881 1009 2881 1497 
Q 2881 1984 2565 2268 
Q 2250 2553 1709 2553 
Q 1456 2553 1204 2497 
Q 953 2441 691 2322 
L 691 4666 
z
" transform="scale(0.015625)"/>
      </defs>
      <use xlink:href="#DejaVuSans-28"/>
      <use xlink:href="#DejaVuSans-4d" x="39.013672"/>
      <use xlink:href="#DejaVuSans-79" x="125.292969"/>
      <use xlink:href="#DejaVuSans-54" x="184.472656"/>
      <use xlink:href="#DejaVuSans-79" x="229.931641"/>
      <use xlink:href="#DejaVuSans-70" x="289.111328"/>
      <use xlink:href="#DejaVuSans-65" x="352.587891"/>
      <use xlink:href="#DejaVuSans-32" x="414.111328"/>
      <use xlink:href="#DejaVuSans-2c" x="477.734375"/>
      <use xlink:href="#DejaVuSans-20" x="509.521484"/>
      <use xlink:href="#DejaVuSans-4d" x="541.308594"/>
      <use xlink:href="#DejaVuSans-79" x="627.587891"/>
      <use xlink:href="#DejaVuSans-54" x="686.767578"/>
      <use xlink:href="#DejaVuSans-79" x="732.226562"/>
      <use xlink:href="#DejaVuSans-70" x="791.40625"/>
      <use xlink:href="#DejaVuSans-65" x="854.882812"/>
      <use xlink:href="#DejaVuSans-33" x="916.40625"/>
      <use xlink:href="#DejaVuSans-3c" x="980.029297"/>
      <use xlink:href="#DejaVuSans-4d" x="1063.818359"/>
      <use xlink:href="#DejaVuSans-79" x="1150.097656"/>
      <use xlink:href="#DejaVuSans-54" x="1209.277344"/>
      <use xlink:href="#DejaVuSans-79" x="1254.736328"/>
      <use xlink:href="#DejaVuSans-70" x="1313.916016"/>
      <use xlink:href="#DejaVuSans-65" x="1377.392578"/>
      <use xlink:href="#DejaVuSans-31" x="1438.916016"/>
      <use xlink:href="#DejaVuSans-3e" x="1502.539062"/>
      <use xlink:href="#DejaVuSans-2c" x="1586.328125"/>
      <use xlink:href="#DejaVuSans-20" x="1618.115234"/>
      <use xlink:href="#DejaVuSans-4d" x="1649.902344"/>
      <use xlink:href="#DejaVuSans-79" x="1736.181641"/>
      <use xlink:href="#DejaVuSans-54" x="1795.361328"/>
      <use xlink:href="#DejaVuSans-79" x="1840.820312"/>
      <use xlink:href="#DejaVuSans-70" x="1900"/>
      <use xlink:href="#DejaVuSans-65" x="1963.476562"/>
      <use xlink:href="#DejaVuSans-34" x="2025"/>
      <use xlink:href="#DejaVuSans-2c" x="2088.623047"/>
      <use xlink:href="#DejaVuSans-20" x="2120.410156"/>
      <use xlink:href="#DejaVuSans-4d" x="2152.197266"/>
      <use xlink:href="#DejaVuSans-79" x="2238.476562"/>
      <use xlink:href="#DejaVuSans-54" x="2297.65625"/>
      <use xlink:href="#DejaVuSans-79" x="2343.115234"/>
      <use xlink:href="#DejaVuSans-70" x="2402.294922"/>
      <use xlink:href="#DejaVuSans-65" x="2465.771484"/>
      <use xlink:href="#DejaVuSans-35" x="2527.294922"/>
      <use xlink:href="#DejaVuSans-29" x="2590.917969"/>
     </g>
    </g>
    <g clip-path="url(#p3d7738b250)">
     <!-- (Node 2) -->
     <g transform="translate(70.568253 377.718281) scale(0.1 -0.1)">
      <use xlink:href="#DejaVuSans-28"/>
      <use xlink:href="#DejaVuSans-4e" x="39.013672"/>
      <use xlink:href="#DejaVuSans-6f" x="113.818359"/>
      <use xlink:href="#DejaVuSans-64" x="175"/>
      <use xlink:href="#DejaVuSans-65" x="238.476562"/>
      <use xlink:href="#DejaVuSans-20" x="300"/>
      <use xlink:href="#DejaVuSans-32" x="331.787109"/>
      <use xlink:href="#DejaVuSans-29" x="395.410156"/>
     </g>
    </g>
   </g>
  </g>
 </g>
 <defs>
  <clipPath id="p3d7738b250">
   <rect x="72" y="51.84" width="446.4" height="332.64"/>
  </clipPath>
 </defs>
</svg>
