<?xml version="1.0" encoding="utf-8" standalone="no"?>
<!DOCTYPE svg PUBLIC "-//W3C//DTD SVG 1.1//EN"
  "http://www.w3.org/Graphics/SVG/1.1/DTD/svg11.dtd">
<svg xmlns:xlink="http://www.w3.org/1999/xlink" width="576pt" height="432pt" viewBox="0 0 576 432" xmlns="http://www.w3.org/2000/svg" version="1.1">
 <metadata>
  <rdf:RDF xmlns:dc="http://purl.org/dc/elements/1.1/" xmlns:cc="http://creativecommons.org/ns#" xmlns:rdf="http://www.w3.org/1999/02/22-rdf-syntax-ns#">
   <cc:Work>
    <dc:type rdf:resource="http://purl.org/dc/dcmitype/StillImage"/>
    <dc:date>2025-03-02T23:47:39.617320</dc:date>
    <dc:format>image/svg+xml</dc:format>
    <dc:creator>
     <cc:Agent>
      <dc:title>Matplotlib v3.6.3, https://matplotlib.org/</dc:title>
     </cc:Agent>
    </dc:creator>
   </cc:Work>
  </rdf:RDF>
 </metadata>
 <defs>
  <style type="text/css">*{stroke-linejoin: round; stroke-linecap: butt}</style>
 </defs>
 <g id="figure_1">
  <g id="patch_1">
   <path d="M 0 432 
L 576 432 
L 576 0 
L 0 0 
z
" style="fill: #ffffff"/>
  </g>
  <g id="axes_1">
   <g id="patch_2">
    <path d="M 261.604848 134.587066 
Q 194.0231 139.456532 131.911369 163.599615 
" clip-path="url(#peb77e799b6)" style="fill: none; stroke: #808080; stroke-linecap: round"/>
    <path d="M 136.364214 164.014554 
L 131.911369 163.599615 
L 134.915028 160.286302 
L 136.364214 164.014554 
z
" clip-path="url(#peb77e799b6)" style="fill: #808080; stroke: #808080; stroke-linecap: round"/>
   </g>
   <g id="patch_3">
    <path d="M 305.443603 139.652877 
Q 374.974017 157.768714 445.625819 154.366301 
" clip-path="url(#peb77e799b6)" style="fill: none; stroke: #808080; stroke-linecap: round"/>
    <path d="M 441.534245 152.561023 
L 445.625819 154.366301 
L 441.726652 156.556393 
L 441.534245 152.561023 
z
" clip-path="url(#peb77e799b6)" style="fill: #808080; stroke: #808080; stroke-linecap: round"/>
   </g>
   <g id="patch_4">
    <path d="M 304.035196 123.704709 
Q 325.455683 111.970532 343.132788 96.782128 
" clip-path="url(#peb77e799b6)" style="fill: none; stroke: #808080; stroke-linecap: round"/>
    <path d="M 338.795476 97.871953 
L 343.132788 96.782128 
L 341.40226 100.905873 
L 338.795476 97.871953 
z
" clip-path="url(#peb77e799b6)" style="fill: #808080; stroke: #808080; stroke-linecap: round"/>
   </g>
   <g id="patch_5">
    <path d="M 265.360733 121.072226 
Q 238.384295 104.543821 209.375021 95.062939 
" clip-path="url(#peb77e799b6)" style="fill: none; stroke: #808080; stroke-linecap: round"/>
    <path d="M 212.55581 98.206596 
L 209.375021 95.062939 
L 213.79842 94.404502 
L 212.55581 98.206596 
z
" clip-path="url(#peb77e799b6)" style="fill: #808080; stroke: #808080; stroke-linecap: round"/>
   </g>
   <g id="patch_6">
    <path d="M 252.995836 316.811749 
Q 246.725577 307.466417 238.27538 301.869012 
" clip-path="url(#peb77e799b6)" style="fill: none; stroke: #808080; stroke-linecap: round"/>
    <path d="M 240.505665 305.745328 
L 238.27538 301.869012 
L 242.714604 302.410573 
L 240.505665 305.745328 
z
" clip-path="url(#peb77e799b6)" style="fill: #808080; stroke: #808080; stroke-linecap: round"/>
   </g>
   <g id="patch_7">
    <path d="M 219.490385 287.783529 
Q 190.404716 267.519126 158.322733 255.298072 
" clip-path="url(#peb77e799b6)" style="fill: none; stroke: #808080; stroke-linecap: round"/>
    <path d="M 161.348752 258.590975 
L 158.322733 255.298072 
L 162.772666 254.852999 
L 161.348752 258.590975 
z
" clip-path="url(#peb77e799b6)" style="fill: #808080; stroke: #808080; stroke-linecap: round"/>
   </g>
   <g id="patch_8">
    <path d="M 255.19698 314.711014 
Q 285.124008 335.57719 318.20179 348.089344 
" clip-path="url(#peb77e799b6)" style="fill: none; stroke: #808080; stroke-linecap: round"/>
    <path d="M 315.168102 344.803505 
L 318.20179 348.089344 
L 313.752906 348.544791 
L 315.168102 344.803505 
z
" clip-path="url(#peb77e799b6)" style="fill: #808080; stroke: #808080; stroke-linecap: round"/>
   </g>
   <g id="PathCollection_1">
    <defs>
     <path id="C0_0_0b8881c06e" d="M 0 22.36068 
C 5.930122 22.36068 11.618159 20.004617 15.811388 15.811388 
C 20.004617 11.618159 22.36068 5.930122 22.36068 -0 
C 22.36068 -5.930122 20.004617 -11.618159 15.811388 -15.811388 
C 11.618159 -20.004617 5.930122 -22.36068 0 -22.36068 
C -5.930122 -22.36068 -11.618159 -20.004617 -15.811388 -15.811388 
C -20.004617 -11.618159 -22.36068 -5.930122 -22.36068 0 
C -22.36068 5.930122 -20.004617 11.618159 -15.811388 15.811388 
C -11.618159 20.004617 -5.930122 22.36068 0 22.36068 
z
"/>
    </defs>
    <g clip-path="url(#peb77e799b6)">
     <use xlink:href="#C0_0_0b8881c06e" x="360.236924" y="80.705455" style="fill: #ff0000; stroke: #000000"/>
    </g>
    <g clip-path="url(#peb77e799b6)">
     <use xlink:href="#C0_0_0b8881c06e" x="498.109091" y="253.871791" style="fill: #ff0000; stroke: #000000"/>
    </g>
    <g clip-path="url(#peb77e799b6)">
     <use xlink:href="#C0_0_0b8881c06e" x="283.940575" y="133.517964" style="fill: #add8e6; stroke: #000000"/>
    </g>
    <g clip-path="url(#peb77e799b6)">
     <use xlink:href="#C0_0_0b8881c06e" x="110.231578" y="172.604592" style="fill: #ff0000; stroke: #000000"/>
    </g>
    <g clip-path="url(#peb77e799b6)">
     <use xlink:href="#C0_0_0b8881c06e" x="469.044946" y="152.722799" style="fill: #ff0000; stroke: #000000"/>
    </g>
    <g clip-path="url(#peb77e799b6)">
     <use xlink:href="#C0_0_0b8881c06e" x="186.79391" y="88.63534" style="fill: #ff0000; stroke: #000000"/>
    </g>
    <g clip-path="url(#peb77e799b6)">
     <use xlink:href="#C0_0_0b8881c06e" x="252.995836" y="316.811749" style="fill: #add8e6; stroke: #000000"/>
    </g>
    <g clip-path="url(#peb77e799b6)">
     <use xlink:href="#C0_0_0b8881c06e" x="237.343287" y="301.251594" style="fill: #add8e6; stroke: #000000"/>
    </g>
    <g clip-path="url(#peb77e799b6)">
     <use xlink:href="#C0_0_0b8881c06e" x="136.095468" y="247.734933" style="fill: #add8e6; stroke: #000000"/>
    </g>
    <g clip-path="url(#peb77e799b6)">
     <use xlink:href="#C0_0_0b8881c06e" x="340.440636" y="355.614545" style="fill: #add8e6; stroke: #000000"/>
    </g>
   </g>
   <g id="text_1">
    <g clip-path="url(#peb77e799b6)">
     <!-- MyType4 -->
     <g transform="translate(338.299424 77.865923) scale(0.1 -0.1)">
      <defs>
       <path id="DejaVuSans-4d" d="M 628 4666 
L 1569 4666 
L 2759 1491 
L 3956 4666 
L 4897 4666 
L 4897 0 
L 4281 0 
L 4281 4097 
L 3078 897 
L 2444 897 
L 1241 4097 
L 1241 0 
L 628 0 
L 628 4666 
z
" transform="scale(0.015625)"/>
       <path id="DejaVuSans-79" d="M 2059 -325 
Q 1816 -950 1584 -1140 
Q 1353 -1331 966 -1331 
L 506 -1331 
L 506 -850 
L 844 -850 
Q 1081 -850 1212 -737 
Q 1344 -625 1503 -206 
L 1606 56 
L 191 3500 
L 800 3500 
L 1894 763 
L 2988 3500 
L 3597 3500 
L 2059 -325 
z
" transform="scale(0.015625)"/>
       <path id="DejaVuSans-54" d="M -19 4666 
L 3928 4666 
L 3928 4134 
L 2272 4134 
L 2272 0 
L 1638 0 
L 1638 4134 
L -19 4134 
L -19 4666 
z
" transform="scale(0.015625)"/>
       <path id="DejaVuSans-70" d="M 1159 525 
L 1159 -1331 
L 581 -1331 
L 581 3500 
L 1159 3500 
L 1159 2969 
Q 1341 3281 1617 3432 
Q 1894 3584 2278 3584 
Q 2916 3584 3314 3078 
Q 3713 2572 3713 1747 
Q 3713 922 3314 415 
Q 2916 -91 2278 -91 
Q 1894 -91 1617 61 
Q 1341 213 1159 525 
z
M 3116 1747 
Q 3116 2381 2855 2742 
Q 2594 3103 2138 3103 
Q 1681 3103 1420 2742 
Q 1159 2381 1159 1747 
Q 1159 1113 1420 752 
Q 1681 391 2138 391 
Q 2594 391 2855 752 
Q 3116 1113 3116 1747 
z
" transform="scale(0.015625)"/>
       <path id="DejaVuSans-65" d="M 3597 1894 
L 3597 1613 
L 953 1613 
Q 991 1019 1311 708 
Q 1631 397 2203 397 
Q 2534 397 2845 478 
Q 3156 559 3463 722 
L 3463 178 
Q 3153 47 2828 -22 
Q 2503 -91 2169 -91 
Q 1331 -91 842 396 
Q 353 884 353 1716 
Q 353 2575 817 3079 
Q 1281 3584 2069 3584 
Q 2775 3584 3186 3129 
Q 3597 2675 3597 1894 
z
M 3022 2063 
Q 3016 2534 2758 2815 
Q 2500 3097 2075 3097 
Q 1594 3097 1305 2825 
Q 1016 2553 972 2059 
L 3022 2063 
z
" transform="scale(0.015625)"/>
       <path id="DejaVuSans-34" d="M 2419 4116 
L 825 1625 
L 2419 1625 
L 2419 4116 
z
M 2253 4666 
L 3047 4666 
L 3047 1625 
L 3713 1625 
L 3713 1100 
L 3047 1100 
L 3047 0 
L 2419 0 
L 2419 1100 
L 313 1100 
L 313 1709 
L 2253 4666 
z
" transform="scale(0.015625)"/>
      </defs>
      <use xlink:href="#DejaVuSans-4d"/>
      <use xlink:href="#DejaVuSans-79" x="86.279297"/>
      <use xlink:href="#DejaVuSans-54" x="145.458984"/>
      <use xlink:href="#DejaVuSans-79" x="190.917969"/>
      <use xlink:href="#DejaVuSans-70" x="250.097656"/>
      <use xlink:href="#DejaVuSans-65" x="313.574219"/>
      <use xlink:href="#DejaVuSans-34" x="375.097656"/>
     </g>
    </g>
    <g clip-path="url(#peb77e799b6)">
     <!-- (Node 0) -->
     <g transform="translate(338.514267 89.063736) scale(0.1 -0.1)">
      <defs>
       <path id="DejaVuSans-28" d="M 1984 4856 
Q 1566 4138 1362 3434 
Q 1159 2731 1159 2009 
Q 1159 1288 1364 580 
Q 1569 -128 1984 -844 
L 1484 -844 
Q 1016 -109 783 600 
Q 550 1309 550 2009 
Q 550 2706 781 3412 
Q 1013 4119 1484 4856 
L 1984 4856 
z
" transform="scale(0.015625)"/>
       <path id="DejaVuSans-4e" d="M 628 4666 
L 1478 4666 
L 3547 763 
L 3547 4666 
L 4159 4666 
L 4159 0 
L 3309 0 
L 1241 3903 
L 1241 0 
L 628 0 
L 628 4666 
z
" transform="scale(0.015625)"/>
       <path id="DejaVuSans-6f" d="M 1959 3097 
Q 1497 3097 1228 2736 
Q 959 2375 959 1747 
Q 959 1119 1226 758 
Q 1494 397 1959 397 
Q 2419 397 2687 759 
Q 2956 1122 2956 1747 
Q 2956 2369 2687 2733 
Q 2419 3097 1959 3097 
z
M 1959 3584 
Q 2709 3584 3137 3096 
Q 3566 2609 3566 1747 
Q 3566 888 3137 398 
Q 2709 -91 1959 -91 
Q 1206 -91 779 398 
Q 353 888 353 1747 
Q 353 2609 779 3096 
Q 1206 3584 1959 3584 
z
" transform="scale(0.015625)"/>
       <path id="DejaVuSans-64" d="M 2906 2969 
L 2906 4863 
L 3481 4863 
L 3481 0 
L 2906 0 
L 2906 525 
Q 2725 213 2448 61 
Q 2172 -91 1784 -91 
Q 1150 -91 751 415 
Q 353 922 353 1747 
Q 353 2572 751 3078 
Q 1150 3584 1784 3584 
Q 2172 3584 2448 3432 
Q 2725 3281 2906 2969 
z
M 947 1747 
Q 947 1113 1208 752 
Q 1469 391 1925 391 
Q 2381 391 2643 752 
Q 2906 1113 2906 1747 
Q 2906 2381 2643 2742 
Q 2381 3103 1925 3103 
Q 1469 3103 1208 2742 
Q 947 2381 947 1747 
z
" transform="scale(0.015625)"/>
       <path id="DejaVuSans-20" transform="scale(0.015625)"/>
       <path id="DejaVuSans-30" d="M 2034 4250 
Q 1547 4250 1301 3770 
Q 1056 3291 1056 2328 
Q 1056 1369 1301 889 
Q 1547 409 2034 409 
Q 2525 409 2770 889 
Q 3016 1369 3016 2328 
Q 3016 3291 2770 3770 
Q 2525 4250 2034 4250 
z
M 2034 4750 
Q 2819 4750 3233 4129 
Q 3647 3509 3647 2328 
Q 3647 1150 3233 529 
Q 2819 -91 2034 -91 
Q 1250 -91 836 529 
Q 422 1150 422 2328 
Q 422 3509 836 4129 
Q 1250 4750 2034 4750 
z
" transform="scale(0.015625)"/>
       <path id="DejaVuSans-29" d="M 513 4856 
L 1013 4856 
Q 1481 4119 1714 3412 
Q 1947 2706 1947 2009 
Q 1947 1309 1714 600 
Q 1481 -109 1013 -844 
L 513 -844 
Q 928 -128 1133 580 
Q 1338 1288 1338 2009 
Q 1338 2731 1133 3434 
Q 928 4138 513 4856 
z
" transform="scale(0.015625)"/>
      </defs>
      <use xlink:href="#DejaVuSans-28"/>
      <use xlink:href="#DejaVuSans-4e" x="39.013672"/>
      <use xlink:href="#DejaVuSans-6f" x="113.818359"/>
      <use xlink:href="#DejaVuSans-64" x="175"/>
      <use xlink:href="#DejaVuSans-65" x="238.476562"/>
      <use xlink:href="#DejaVuSans-20" x="300"/>
      <use xlink:href="#DejaVuSans-30" x="331.787109"/>
      <use xlink:href="#DejaVuSans-29" x="395.410156"/>
     </g>
    </g>
   </g>
   <g id="text_2">
    <g clip-path="url(#peb77e799b6)">
     <!-- MyType1 -->
     <g transform="translate(476.171591 251.03226) scale(0.1 -0.1)">
      <defs>
       <path id="DejaVuSans-31" d="M 794 531 
L 1825 531 
L 1825 4091 
L 703 3866 
L 703 4441 
L 1819 4666 
L 2450 4666 
L 2450 531 
L 3481 531 
L 3481 0 
L 794 0 
L 794 531 
z
" transform="scale(0.015625)"/>
      </defs>
      <use xlink:href="#DejaVuSans-4d"/>
      <use xlink:href="#DejaVuSans-79" x="86.279297"/>
      <use xlink:href="#DejaVuSans-54" x="145.458984"/>
      <use xlink:href="#DejaVuSans-79" x="190.917969"/>
      <use xlink:href="#DejaVuSans-70" x="250.097656"/>
      <use xlink:href="#DejaVuSans-65" x="313.574219"/>
      <use xlink:href="#DejaVuSans-31" x="375.097656"/>
     </g>
    </g>
    <g clip-path="url(#peb77e799b6)">
     <!-- (Node 1) -->
     <g transform="translate(476.386435 262.230072) scale(0.1 -0.1)">
      <use xlink:href="#DejaVuSans-28"/>
      <use xlink:href="#DejaVuSans-4e" x="39.013672"/>
      <use xlink:href="#DejaVuSans-6f" x="113.818359"/>
      <use xlink:href="#DejaVuSans-64" x="175"/>
      <use xlink:href="#DejaVuSans-65" x="238.476562"/>
      <use xlink:href="#DejaVuSans-20" x="300"/>
      <use xlink:href="#DejaVuSans-31" x="331.787109"/>
      <use xlink:href="#DejaVuSans-29" x="395.410156"/>
     </g>
    </g>
   </g>
   <g id="text_3">
    <g clip-path="url(#peb77e799b6)">
     <!-- (MyType2, MyType3&lt;MyType1&gt;, MyType4, MyType5) -->
     <g transform="translate(152.43745 130.678433) scale(0.1 -0.1)">
      <defs>
       <path id="DejaVuSans-32" d="M 1228 531 
L 3431 531 
L 3431 0 
L 469 0 
L 469 531 
Q 828 903 1448 1529 
Q 2069 2156 2228 2338 
Q 2531 2678 2651 2914 
Q 2772 3150 2772 3378 
Q 2772 3750 2511 3984 
Q 2250 4219 1831 4219 
Q 1534 4219 1204 4116 
Q 875 4013 500 3803 
L 500 4441 
Q 881 4594 1212 4672 
Q 1544 4750 1819 4750 
Q 2544 4750 2975 4387 
Q 3406 4025 3406 3419 
Q 3406 3131 3298 2873 
Q 3191 2616 2906 2266 
Q 2828 2175 2409 1742 
Q 1991 1309 1228 531 
z
" transform="scale(0.015625)"/>
       <path id="DejaVuSans-2c" d="M 750 794 
L 1409 794 
L 1409 256 
L 897 -744 
L 494 -744 
L 750 256 
L 750 794 
z
" transform="scale(0.015625)"/>
       <path id="DejaVuSans-33" d="M 2597 2516 
Q 3050 2419 3304 2112 
Q 3559 1806 3559 1356 
Q 3559 666 3084 287 
Q 2609 -91 1734 -91 
Q 1441 -91 1130 -33 
Q 819 25 488 141 
L 488 750 
Q 750 597 1062 519 
Q 1375 441 1716 441 
Q 2309 441 2620 675 
Q 2931 909 2931 1356 
Q 2931 1769 2642 2001 
Q 2353 2234 1838 2234 
L 1294 2234 
L 1294 2753 
L 1863 2753 
Q 2328 2753 2575 2939 
Q 2822 3125 2822 3475 
Q 2822 3834 2567 4026 
Q 2313 4219 1838 4219 
Q 1578 4219 1281 4162 
Q 984 4106 628 3988 
L 628 4550 
Q 988 4650 1302 4700 
Q 1616 4750 1894 4750 
Q 2613 4750 3031 4423 
Q 3450 4097 3450 3541 
Q 3450 3153 3228 2886 
Q 3006 2619 2597 2516 
z
" transform="scale(0.015625)"/>
       <path id="DejaVuSans-3c" d="M 4684 3150 
L 1459 2003 
L 4684 863 
L 4684 294 
L 678 1747 
L 678 2266 
L 4684 3719 
L 4684 3150 
z
" transform="scale(0.015625)"/>
       <path id="DejaVuSans-3e" d="M 678 3150 
L 678 3719 
L 4684 2266 
L 4684 1747 
L 678 294 
L 678 863 
L 3897 2003 
L 678 3150 
z
" transform="scale(0.015625)"/>
       <path id="DejaVuSans-35" d="M 691 4666 
L 3169 4666 
L 3169 4134 
L 1269 4134 
L 1269 2991 
Q 1406 3038 1543 3061 
Q 1681 3084 1819 3084 
Q 2600 3084 3056 2656 
Q 3513 2228 3513 1497 
Q 3513 744 3044 326 
Q 2575 -91 1722 -91 
Q 1428 -91 1123 -41 
Q 819 9 494 109 
L 494 744 
Q 775 591 1075 516 
Q 1375 441 1709 441 
Q 2250 441 2565 725 
Q 2881 1009 2881 1497 
Q 2881 1984 2565 2268 
Q 2250 2553 1709 2553 
Q 1456 2553 1204 2497 
Q 953 2441 691 2322 
L 691 4666 
z
" transform="scale(0.015625)"/>
      </defs>
      <use xlink:href="#DejaVuSans-28"/>
      <use xlink:href="#DejaVuSans-4d" x="39.013672"/>
      <use xlink:href="#DejaVuSans-79" x="125.292969"/>
      <use xlink:href="#DejaVuSans-54" x="184.472656"/>
      <use xlink:href="#DejaVuSans-79" x="229.931641"/>
      <use xlink:href="#DejaVuSans-70" x="289.111328"/>
      <use xlink:href="#DejaVuSans-65" x="352.587891"/>
      <use xlink:href="#DejaVuSans-32" x="414.111328"/>
      <use xlink:href="#DejaVuSans-2c" x="477.734375"/>
      <use xlink:href="#DejaVuSans-20" x="509.521484"/>
      <use xlink:href="#DejaVuSans-4d" x="541.308594"/>
      <use xlink:href="#DejaVuSans-79" x="627.587891"/>
      <use xlink:href="#DejaVuSans-54" x="686.767578"/>
      <use xlink:href="#DejaVuSans-79" x="732.226562"/>
      <use xlink:href="#DejaVuSans-70" x="791.40625"/>
      <use xlink:href="#DejaVuSans-65" x="854.882812"/>
      <use xlink:href="#DejaVuSans-33" x="916.40625"/>
      <use xlink:href="#DejaVuSans-3c" x="980.029297"/>
      <use xlink:href="#DejaVuSans-4d" x="1063.818359"/>
      <use xlink:href="#DejaVuSans-79" x="1150.097656"/>
      <use xlink:href="#DejaVuSans-54" x="1209.277344"/>
      <use xlink:href="#DejaVuSans-79" x="1254.736328"/>
      <use xlink:href="#DejaVuSans-70" x="1313.916016"/>
      <use xlink:href="#DejaVuSans-65" x="1377.392578"/>
      <use xlink:href="#DejaVuSans-31" x="1438.916016"/>
      <use xlink:href="#DejaVuSans-3e" x="1502.539062"/>
      <use xlink:href="#DejaVuSans-2c" x="1586.328125"/>
      <use xlink:href="#DejaVuSans-20" x="1618.115234"/>
      <use xlink:href="#DejaVuSans-4d" x="1649.902344"/>
      <use xlink:href="#DejaVuSans-79" x="1736.181641"/>
      <use xlink:href="#DejaVuSans-54" x="1795.361328"/>
      <use xlink:href="#DejaVuSans-79" x="1840.820312"/>
      <use xlink:href="#DejaVuSans-70" x="1900"/>
      <use xlink:href="#DejaVuSans-65" x="1963.476562"/>
      <use xlink:href="#DejaVuSans-34" x="2025"/>
      <use xlink:href="#DejaVuSans-2c" x="2088.623047"/>
      <use xlink:href="#DejaVuSans-20" x="2120.410156"/>
      <use xlink:href="#DejaVuSans-4d" x="2152.197266"/>
      <use xlink:href="#DejaVuSans-79" x="2238.476562"/>
      <use xlink:href="#DejaVuSans-54" x="2297.65625"/>
      <use xlink:href="#DejaVuSans-79" x="2343.115234"/>
      <use xlink:href="#DejaVuSans-70" x="2402.294922"/>
      <use xlink:href="#DejaVuSans-65" x="2465.771484"/>
      <use xlink:href="#DejaVuSans-35" x="2527.294922"/>
      <use xlink:href="#DejaVuSans-29" x="2590.917969"/>
     </g>
    </g>
    <g clip-path="url(#peb77e799b6)">
     <!-- (Node 2) -->
     <g transform="translate(262.217919 141.876245) scale(0.1 -0.1)">
      <use xlink:href="#DejaVuSans-28"/>
      <use xlink:href="#DejaVuSans-4e" x="39.013672"/>
      <use xlink:href="#DejaVuSans-6f" x="113.818359"/>
      <use xlink:href="#DejaVuSans-64" x="175"/>
      <use xlink:href="#DejaVuSans-65" x="238.476562"/>
      <use xlink:href="#DejaVuSans-20" x="300"/>
      <use xlink:href="#DejaVuSans-32" x="331.787109"/>
      <use xlink:href="#DejaVuSans-29" x="395.410156"/>
     </g>
    </g>
   </g>
   <g id="text_4">
    <g clip-path="url(#peb77e799b6)">
     <!-- MyType2 -->
     <g transform="translate(88.294078 169.76506) scale(0.1 -0.1)">
      <use xlink:href="#DejaVuSans-4d"/>
      <use xlink:href="#DejaVuSans-79" x="86.279297"/>
      <use xlink:href="#DejaVuSans-54" x="145.458984"/>
      <use xlink:href="#DejaVuSans-79" x="190.917969"/>
      <use xlink:href="#DejaVuSans-70" x="250.097656"/>
      <use xlink:href="#DejaVuSans-65" x="313.574219"/>
      <use xlink:href="#DejaVuSans-32" x="375.097656"/>
     </g>
    </g>
    <g clip-path="url(#peb77e799b6)">
     <!-- (Node 3) -->
     <g transform="translate(88.508921 180.962873) scale(0.1 -0.1)">
      <use xlink:href="#DejaVuSans-28"/>
      <use xlink:href="#DejaVuSans-4e" x="39.013672"/>
      <use xlink:href="#DejaVuSans-6f" x="113.818359"/>
      <use xlink:href="#DejaVuSans-64" x="175"/>
      <use xlink:href="#DejaVuSans-65" x="238.476562"/>
      <use xlink:href="#DejaVuSans-20" x="300"/>
      <use xlink:href="#DejaVuSans-33" x="331.787109"/>
      <use xlink:href="#DejaVuSans-29" x="395.410156"/>
     </g>
    </g>
   </g>
   <g id="text_5">
    <g clip-path="url(#peb77e799b6)">
     <!-- MyType3&lt;MyType1&gt; -->
     <g transform="translate(416.790259 149.883268) scale(0.1 -0.1)">
      <use xlink:href="#DejaVuSans-4d"/>
      <use xlink:href="#DejaVuSans-79" x="86.279297"/>
      <use xlink:href="#DejaVuSans-54" x="145.458984"/>
      <use xlink:href="#DejaVuSans-79" x="190.917969"/>
      <use xlink:href="#DejaVuSans-70" x="250.097656"/>
      <use xlink:href="#DejaVuSans-65" x="313.574219"/>
      <use xlink:href="#DejaVuSans-33" x="375.097656"/>
      <use xlink:href="#DejaVuSans-3c" x="438.720703"/>
      <use xlink:href="#DejaVuSans-4d" x="522.509766"/>
      <use xlink:href="#DejaVuSans-79" x="608.789062"/>
      <use xlink:href="#DejaVuSans-54" x="667.96875"/>
      <use xlink:href="#DejaVuSans-79" x="713.427734"/>
      <use xlink:href="#DejaVuSans-70" x="772.607422"/>
      <use xlink:href="#DejaVuSans-65" x="836.083984"/>
      <use xlink:href="#DejaVuSans-31" x="897.607422"/>
      <use xlink:href="#DejaVuSans-3e" x="961.230469"/>
     </g>
    </g>
    <g clip-path="url(#peb77e799b6)">
     <!-- (Node 4) -->
     <g transform="translate(447.32229 161.08108) scale(0.1 -0.1)">
      <use xlink:href="#DejaVuSans-28"/>
      <use xlink:href="#DejaVuSans-4e" x="39.013672"/>
      <use xlink:href="#DejaVuSans-6f" x="113.818359"/>
      <use xlink:href="#DejaVuSans-64" x="175"/>
      <use xlink:href="#DejaVuSans-65" x="238.476562"/>
      <use xlink:href="#DejaVuSans-20" x="300"/>
      <use xlink:href="#DejaVuSans-34" x="331.787109"/>
      <use xlink:href="#DejaVuSans-29" x="395.410156"/>
     </g>
    </g>
   </g>
   <g id="text_6">
    <g clip-path="url(#peb77e799b6)">
     <!-- MyType5 -->
     <g transform="translate(164.85641 85.795809) scale(0.1 -0.1)">
      <use xlink:href="#DejaVuSans-4d"/>
      <use xlink:href="#DejaVuSans-79" x="86.279297"/>
      <use xlink:href="#DejaVuSans-54" x="145.458984"/>
      <use xlink:href="#DejaVuSans-79" x="190.917969"/>
      <use xlink:href="#DejaVuSans-70" x="250.097656"/>
      <use xlink:href="#DejaVuSans-65" x="313.574219"/>
      <use xlink:href="#DejaVuSans-35" x="375.097656"/>
     </g>
    </g>
    <g clip-path="url(#peb77e799b6)">
     <!-- (Node 5) -->
     <g transform="translate(165.071253 96.993621) scale(0.1 -0.1)">
      <use xlink:href="#DejaVuSans-28"/>
      <use xlink:href="#DejaVuSans-4e" x="39.013672"/>
      <use xlink:href="#DejaVuSans-6f" x="113.818359"/>
      <use xlink:href="#DejaVuSans-64" x="175"/>
      <use xlink:href="#DejaVuSans-65" x="238.476562"/>
      <use xlink:href="#DejaVuSans-20" x="300"/>
      <use xlink:href="#DejaVuSans-35" x="331.787109"/>
      <use xlink:href="#DejaVuSans-29" x="395.410156"/>
     </g>
    </g>
   </g>
   <g id="text_7">
    <g clip-path="url(#peb77e799b6)">
     <!-- &amp;a (T1, T2) -->
     <g transform="translate(224.893492 313.972218) scale(0.1 -0.1)">
      <defs>
       <path id="DejaVuSans-26" d="M 1556 2509 
Q 1272 2256 1139 2004 
Q 1006 1753 1006 1478 
Q 1006 1022 1337 719 
Q 1669 416 2169 416 
Q 2466 416 2725 514 
Q 2984 613 3213 813 
L 1556 2509 
z
M 1997 2859 
L 3584 1234 
Q 3769 1513 3872 1830 
Q 3975 2147 3994 2503 
L 4575 2503 
Q 4538 2091 4375 1687 
Q 4213 1284 3922 891 
L 4794 0 
L 4006 0 
L 3559 459 
Q 3234 181 2878 45 
Q 2522 -91 2113 -91 
Q 1359 -91 881 339 
Q 403 769 403 1441 
Q 403 1841 612 2192 
Q 822 2544 1241 2853 
Q 1091 3050 1012 3245 
Q 934 3441 934 3628 
Q 934 4134 1281 4442 
Q 1628 4750 2203 4750 
Q 2463 4750 2720 4694 
Q 2978 4638 3244 4525 
L 3244 3956 
Q 2972 4103 2725 4179 
Q 2478 4256 2266 4256 
Q 1938 4256 1733 4082 
Q 1528 3909 1528 3634 
Q 1528 3475 1620 3314 
Q 1713 3153 1997 2859 
z
" transform="scale(0.015625)"/>
       <path id="DejaVuSans-61" d="M 2194 1759 
Q 1497 1759 1228 1600 
Q 959 1441 959 1056 
Q 959 750 1161 570 
Q 1363 391 1709 391 
Q 2188 391 2477 730 
Q 2766 1069 2766 1631 
L 2766 1759 
L 2194 1759 
z
M 3341 1997 
L 3341 0 
L 2766 0 
L 2766 531 
Q 2569 213 2275 61 
Q 1981 -91 1556 -91 
Q 1019 -91 701 211 
Q 384 513 384 1019 
Q 384 1609 779 1909 
Q 1175 2209 1959 2209 
L 2766 2209 
L 2766 2266 
Q 2766 2663 2505 2880 
Q 2244 3097 1772 3097 
Q 1472 3097 1187 3025 
Q 903 2953 641 2809 
L 641 3341 
Q 956 3463 1253 3523 
Q 1550 3584 1831 3584 
Q 2591 3584 2966 3190 
Q 3341 2797 3341 1997 
z
" transform="scale(0.015625)"/>
      </defs>
      <use xlink:href="#DejaVuSans-26"/>
      <use xlink:href="#DejaVuSans-61" x="77.978516"/>
      <use xlink:href="#DejaVuSans-20" x="139.257812"/>
      <use xlink:href="#DejaVuSans-28" x="171.044922"/>
      <use xlink:href="#DejaVuSans-54" x="210.058594"/>
      <use xlink:href="#DejaVuSans-31" x="271.142578"/>
      <use xlink:href="#DejaVuSans-2c" x="334.765625"/>
      <use xlink:href="#DejaVuSans-20" x="366.552734"/>
      <use xlink:href="#DejaVuSans-54" x="398.339844"/>
      <use xlink:href="#DejaVuSans-32" x="459.423828"/>
      <use xlink:href="#DejaVuSans-29" x="523.046875"/>
     </g>
    </g>
    <g clip-path="url(#peb77e799b6)">
     <!-- (Node 6) -->
     <g transform="translate(231.273179 325.17003) scale(0.1 -0.1)">
      <defs>
       <path id="DejaVuSans-36" d="M 2113 2584 
Q 1688 2584 1439 2293 
Q 1191 2003 1191 1497 
Q 1191 994 1439 701 
Q 1688 409 2113 409 
Q 2538 409 2786 701 
Q 3034 994 3034 1497 
Q 3034 2003 2786 2293 
Q 2538 2584 2113 2584 
z
M 3366 4563 
L 3366 3988 
Q 3128 4100 2886 4159 
Q 2644 4219 2406 4219 
Q 1781 4219 1451 3797 
Q 1122 3375 1075 2522 
Q 1259 2794 1537 2939 
Q 1816 3084 2150 3084 
Q 2853 3084 3261 2657 
Q 3669 2231 3669 1497 
Q 3669 778 3244 343 
Q 2819 -91 2113 -91 
Q 1303 -91 875 529 
Q 447 1150 447 2328 
Q 447 3434 972 4092 
Q 1497 4750 2381 4750 
Q 2619 4750 2861 4703 
Q 3103 4656 3366 4563 
z
" transform="scale(0.015625)"/>
      </defs>
      <use xlink:href="#DejaVuSans-28"/>
      <use xlink:href="#DejaVuSans-4e" x="39.013672"/>
      <use xlink:href="#DejaVuSans-6f" x="113.818359"/>
      <use xlink:href="#DejaVuSans-64" x="175"/>
      <use xlink:href="#DejaVuSans-65" x="238.476562"/>
      <use xlink:href="#DejaVuSans-20" x="300"/>
      <use xlink:href="#DejaVuSans-36" x="331.787109"/>
      <use xlink:href="#DejaVuSans-29" x="395.410156"/>
     </g>
    </g>
   </g>
   <g id="text_8">
    <g clip-path="url(#peb77e799b6)">
     <!-- (T1, T2) -->
     <g transform="translate(217.793287 298.412063) scale(0.1 -0.1)">
      <use xlink:href="#DejaVuSans-28"/>
      <use xlink:href="#DejaVuSans-54" x="39.013672"/>
      <use xlink:href="#DejaVuSans-31" x="100.097656"/>
      <use xlink:href="#DejaVuSans-2c" x="163.720703"/>
      <use xlink:href="#DejaVuSans-20" x="195.507812"/>
      <use xlink:href="#DejaVuSans-54" x="227.294922"/>
      <use xlink:href="#DejaVuSans-32" x="288.378906"/>
      <use xlink:href="#DejaVuSans-29" x="352.001953"/>
     </g>
    </g>
    <g clip-path="url(#peb77e799b6)">
     <!-- (Node 7) -->
     <g transform="translate(215.620631 309.609876) scale(0.1 -0.1)">
      <defs>
       <path id="DejaVuSans-37" d="M 525 4666 
L 3525 4666 
L 3525 4397 
L 1831 0 
L 1172 0 
L 2766 4134 
L 525 4134 
L 525 4666 
z
" transform="scale(0.015625)"/>
      </defs>
      <use xlink:href="#DejaVuSans-28"/>
      <use xlink:href="#DejaVuSans-4e" x="39.013672"/>
      <use xlink:href="#DejaVuSans-6f" x="113.818359"/>
      <use xlink:href="#DejaVuSans-64" x="175"/>
      <use xlink:href="#DejaVuSans-65" x="238.476562"/>
      <use xlink:href="#DejaVuSans-20" x="300"/>
      <use xlink:href="#DejaVuSans-37" x="331.787109"/>
      <use xlink:href="#DejaVuSans-29" x="395.410156"/>
     </g>
    </g>
   </g>
   <g id="text_9">
    <g clip-path="url(#peb77e799b6)">
     <!-- T1 -->
     <g transform="translate(129.860312 244.895402) scale(0.1 -0.1)">
      <use xlink:href="#DejaVuSans-54"/>
      <use xlink:href="#DejaVuSans-31" x="61.083984"/>
     </g>
    </g>
    <g clip-path="url(#peb77e799b6)">
     <!-- (Node 8) -->
     <g transform="translate(114.372812 256.093214) scale(0.1 -0.1)">
      <defs>
       <path id="DejaVuSans-38" d="M 2034 2216 
Q 1584 2216 1326 1975 
Q 1069 1734 1069 1313 
Q 1069 891 1326 650 
Q 1584 409 2034 409 
Q 2484 409 2743 651 
Q 3003 894 3003 1313 
Q 3003 1734 2745 1975 
Q 2488 2216 2034 2216 
z
M 1403 2484 
Q 997 2584 770 2862 
Q 544 3141 544 3541 
Q 544 4100 942 4425 
Q 1341 4750 2034 4750 
Q 2731 4750 3128 4425 
Q 3525 4100 3525 3541 
Q 3525 3141 3298 2862 
Q 3072 2584 2669 2484 
Q 3125 2378 3379 2068 
Q 3634 1759 3634 1313 
Q 3634 634 3220 271 
Q 2806 -91 2034 -91 
Q 1263 -91 848 271 
Q 434 634 434 1313 
Q 434 1759 690 2068 
Q 947 2378 1403 2484 
z
M 1172 3481 
Q 1172 3119 1398 2916 
Q 1625 2713 2034 2713 
Q 2441 2713 2670 2916 
Q 2900 3119 2900 3481 
Q 2900 3844 2670 4047 
Q 2441 4250 2034 4250 
Q 1625 4250 1398 4047 
Q 1172 3844 1172 3481 
z
" transform="scale(0.015625)"/>
      </defs>
      <use xlink:href="#DejaVuSans-28"/>
      <use xlink:href="#DejaVuSans-4e" x="39.013672"/>
      <use xlink:href="#DejaVuSans-6f" x="113.818359"/>
      <use xlink:href="#DejaVuSans-64" x="175"/>
      <use xlink:href="#DejaVuSans-65" x="238.476562"/>
      <use xlink:href="#DejaVuSans-20" x="300"/>
      <use xlink:href="#DejaVuSans-38" x="331.787109"/>
      <use xlink:href="#DejaVuSans-29" x="395.410156"/>
     </g>
    </g>
   </g>
   <g id="text_10">
    <g clip-path="url(#peb77e799b6)">
     <!-- T2 -->
     <g transform="translate(334.20548 352.775014) scale(0.1 -0.1)">
      <use xlink:href="#DejaVuSans-54"/>
      <use xlink:href="#DejaVuSans-32" x="61.083984"/>
     </g>
    </g>
    <g clip-path="url(#peb77e799b6)">
     <!-- (Node 9) -->
     <g transform="translate(318.71798 363.972827) scale(0.1 -0.1)">
      <defs>
       <path id="DejaVuSans-39" d="M 703 97 
L 703 672 
Q 941 559 1184 500 
Q 1428 441 1663 441 
Q 2288 441 2617 861 
Q 2947 1281 2994 2138 
Q 2813 1869 2534 1725 
Q 2256 1581 1919 1581 
Q 1219 1581 811 2004 
Q 403 2428 403 3163 
Q 403 3881 828 4315 
Q 1253 4750 1959 4750 
Q 2769 4750 3195 4129 
Q 3622 3509 3622 2328 
Q 3622 1225 3098 567 
Q 2575 -91 1691 -91 
Q 1453 -91 1209 -44 
Q 966 3 703 97 
z
M 1959 2075 
Q 2384 2075 2632 2365 
Q 2881 2656 2881 3163 
Q 2881 3666 2632 3958 
Q 2384 4250 1959 4250 
Q 1534 4250 1286 3958 
Q 1038 3666 1038 3163 
Q 1038 2656 1286 2365 
Q 1534 2075 1959 2075 
z
" transform="scale(0.015625)"/>
      </defs>
      <use xlink:href="#DejaVuSans-28"/>
      <use xlink:href="#DejaVuSans-4e" x="39.013672"/>
      <use xlink:href="#DejaVuSans-6f" x="113.818359"/>
      <use xlink:href="#DejaVuSans-64" x="175"/>
      <use xlink:href="#DejaVuSans-65" x="238.476562"/>
      <use xlink:href="#DejaVuSans-20" x="300"/>
      <use xlink:href="#DejaVuSans-39" x="331.787109"/>
      <use xlink:href="#DejaVuSans-29" x="395.410156"/>
     </g>
    </g>
   </g>
  </g>
 </g>
 <defs>
  <clipPath id="peb77e799b6">
   <rect x="72" y="51.84" width="446.4" height="332.64"/>
  </clipPath>
 </defs>
</svg>
